# xmcd CD database file
#
# Track frame offsets:
#	150
#	24619
#	54466
#	75862
#	97191
#	115703
#
# Disc length: 1976 seconds
#
# Revision: 0
# Processed by: cddbd v1.5.2PL0 Copyright (c) Steve Scherf et al.
# Submitted via: CDex 1.70beta2
#
DISCID=3e07b606
DTITLE=Bobby Hutcherson - Knucklebean
DYEAR=1977
DGENRE=Jazz
TTITLE0=Why Not
TTITLE1=Sundance Knows
TTITLE2=So Far, So Good
TTITLE3=Little B's Poem
TTITLE4='Til Then
TTITLE5=Knucklebean
EXTD=YEAR: 1977
EXTT0=
EXTT1=
EXTT2=
EXTT3=
EXTT4=
EXTT5=
PLAYORDER=
